<svg xmlns="http://www.w3.org/2000/svg" viewBox="0 0 258.25 178.73"><defs><style>.cls-1{fill:#ff6000;}</style></defs><g id="Layer_2" data-name="Layer 2"><g id="Layer_1-2" data-name="Layer 1"><g id="_0poq6r" data-name="0poq6r"><path class="cls-1" d="M116.67,74.49V62.08h2.44V59.73c1.13-.2,9.92-.26,14.93-.1V67h7.45V64.56h4.93V62.25l.13-.13a.21.21,0,0,1,.11,0h7.26v2.48H149V67h-5v2.5h-2.46V72c-.84.13-1.65,0-2.5.09V79.4h-2.49V72h-2.5v-2.5h-2.49v-7.4h-9.95v2.46h-2.47c0,1.73,0,3.37,0,5s0,3.26,0,4.89Z"/><path class="cls-1" d="M22.32,22.35V17.42l-1.19,0H19.87v2.45H17.38v2.5h-2.5v4.93H12.41V19.91h2.41c.11-1.67,0-3.3.06-5h-2.5V10h2.46V7.47h2.49V5h2.46c.1,1.58,0,3.21.05,4.88H17.41v5h2.4V12.43h2.46V10l1.23-.05h1.27V7.51h2.48v7.34H25a.75.75,0,0,0-.16.12.22.22,0,0,0-.05.11v7.27Z"/><path class="cls-1" d="M121.65,27.35c0-.82,0-1.61,0-2.4a.3.3,0,0,1,.08-.08.3.3,0,0,1,.11,0h7.08s.07,0,.14-.07V2.54h2.49v32.2H129.1V37.2h-9.82a83.55,83.55,0,0,1-.09-9.84h2.46c0,2.43,0,4.89,0,7.36h5V32.26h2.44V27.35Z"/><path class="cls-1" d="M34.73,39.68V34.8l-1.19,0H32.28v2.46h-2.5v2.46h-4.9l0,0a.24.24,0,0,1-.05-.1V32.32h2.44V22.39h2.5v9.86h2.49V29.8h2.46V27.35l1.23,0h1.26V24.89h2.49v9.82h-2.4c-.13,1.67,0,3.31-.08,5Z"/><path class="cls-1" d="M57.08,81.9v2.49c-1.63.08-3.26,0-4.93,0V77h-2.5v2.41H47.16v2.45H44.72c-.13.84,0,1.66-.08,2.49h-2.4V69.55h2.4V62.11H47.1V72H44.71v4.93l1.13,0c.41,0,.82,0,1.27,0V74.52H49.6V72h2.5V69.57h2.41s0,0,0,0a.21.21,0,0,1,0,.1c0,4.05,0,8.1,0,12.19Z"/><path class="cls-1" d="M146.47,171.33h2.43c.12-.79,0-1.6.08-2.44h2.3l.11-.13a.21.21,0,0,0,0-.11v-4.73h2.43c.13-.83,0-1.64.09-2.52.82,0,1.63,0,2.47,0,0,1.61,0,3.25,0,4.89h2.43v-4.88h-2.44c0-.81,0-1.6,0-2.47h2.45V154h2.48v22.24h-2.44v-7.35H154c-.11.75,0,1.56-.07,2.4h-2.43v2.5H149v2.48h-2.49Z"/><path class="cls-1" d="M186.24,74.45H198.6V69.57H201c.12-.84,0-1.65.08-2.49h2.43V64.59H211V76.94h-2.4V72h-2.49V69.55h-2.46V72c-.83.13-1.65,0-2.49.09v4.87H186.24Z"/><path class="cls-1" d="M186.2,124.19V121.7h2.46v-2.5h2.45v-2.43c.84-.15,1.66,0,2.5-.1v-2.39h5v4.89h-2.44v2.45h-4.92c-.13.84,0,1.65-.09,2.5h-2.39v5h2.41v2.5h7.42V134a94.67,94.67,0,0,1-9.86.07v-2.4h-2.49v-5h-2.48v-2.46Z"/><path class="cls-1" d="M158.88,124.17v2.41c-.79.12-1.6,0-2.44.08v2.4h-5v-4.88h2.42v-5h2.49v-2.49h2.49v-2.46h4.89s0,0,0,0a.24.24,0,0,1,0,.1v12.22h2.46v2.45h-4.86s0,0,0,0a.21.21,0,0,1,0-.1c0-1.57,0-3.13,0-4.74-.86,0-1.67,0-2.49,0,0-.85,0-1.67,0-2.52.79,0,1.6,0,2.41,0v-2.42h-2.39c0,.84,0,1.65,0,2.44-.83,0-1.65,0-2.5,0,0,.49,0,.89,0,1.3s0,.79,0,1.18C157.31,124.15,158.1,124.15,158.88,124.17Z"/><path class="cls-1" d="M176.26,161.44V159l1.19,0h1.27V154h2.49v14.79h2.49v-4.87H186l.12-.13a.2.2,0,0,0,0-.11c0-1.56,0-3.13,0-4.73h4.9v2.43h-2.41v5h-2.45v4.93h-2.5v2.5h-2.49v2.46h-2.42l0,0a.21.21,0,0,1,0-.11V161.44Z"/><path class="cls-1" d="M173.78,72V62.12c-1.62-.1-3.25,0-4.93-.06V64.5h-2.48V59.62h7.39V57.13h2.49v-9.9h2.49V57.1h7.43v2.45h-9.73c-.08.07-.11.09-.13.13a.16.16,0,0,0-.05.1V72Z"/><path class="cls-1" d="M76.94,74.51v2.42c-.39,0-.79,0-1.18,0s-.82,0-1.27,0V79.4h-5V74.51H72v-5h2.49V67.09h7.33c.19,1,.26,9.93.09,14.85H79.56a.73.73,0,0,1-.09-.08.21.21,0,0,1,0-.11V74.53c-.86,0-1.67,0-2.49,0,0-.85,0-1.67,0-2.52.79,0,1.6,0,2.41,0V69.55H77c0,.84,0,1.65,0,2.44-.83,0-1.65,0-2.5,0,0,.49,0,.89,0,1.3s0,.79,0,1.18C75.37,74.49,76.16,74.49,76.94,74.51Z"/><path class="cls-1" d="M37.21,163.88v-2.44h2.45V159h7.46v2.41H49.6v17.35H47.16v-14.8H44.71c-.13.74,0,1.55-.09,2.43H39.7v-2.48Z"/><path class="cls-1" d="M171.3,9.93V7.56l.08-.07a.25.25,0,0,1,.11,0h4.74V5h17.41v4.9H191.2c-.1-.88,0-1.69-.09-2.44h-9.88V8.75c0,.4,0,.79,0,1.23h-2.44c0,2.43,0,4.82,0,7.21a.15.15,0,0,1,0,.11.6.6,0,0,1-.08.08h-2.36V9.93Z"/><path class="cls-1" d="M253.24,89.35V86.94h2.44V77h-2.42V79.4h-2.48V69.57h4.93V72h2.36c.19,1.11.25,13.49.09,17.39Z"/><path class="cls-1" d="M99.29,34.72v2.4a91.74,91.74,0,0,1-9.89.09V27.36c.75-.13,1.56,0,2.4-.08V24.87h2.49V22.4h5v4.89H96.82v2.49H94.33v2.45H91.88c0,.44,0,.83,0,1.23v1.26Z"/><path class="cls-1" d="M218.47,22.35v14.9c-.85,0-1.66,0-2.5,0,0-.8,0-1.61,0-2.41h-4.9v2.39c1.67,0,3.31,0,4.92,0,0,.8,0,1.59,0,2.38,0,0-.05.06-.09.08a.21.21,0,0,1-.1,0h-7.23V37.27h-2.48v-5H216V22.35Z"/><path class="cls-1" d="M119.11,163.88h-9.85c0-.39,0-.79,0-1.19v-1.26h-2.43v-2.5h2.38V156.5c.84-.15,1.66,0,2.5-.1V154h5v-2.46h9.93v2.38H119.2c0,.44,0,.83,0,1.23s0,.82,0,1.27h-4.93v2.49h-2.46v2.5h7.35Z"/><path class="cls-1" d="M156.42,64.58c0-.81,0-1.59,0-2.37a.73.73,0,0,1,.08-.09.21.21,0,0,1,.11,0h7.21v5h-2.39v2.43c-.84.13-1.65,0-2.49.08V72h-5v5h-2.35a.23.23,0,0,1-.09-.08.19.19,0,0,1,0-.1V69.55h2.49v-5c.82,0,1.65,0,2.5,0,0,.79,0,1.6,0,2.41h2.43v-2.4Z"/><path class="cls-1" d="M186.24,74.49h-2.4a98,98,0,0,1-.08-9.9h2.41V62.11h9.9V67h-2.42v2.49h-7.41ZM188.7,67h2.46c0-.45,0-.85,0-1.26s0-.79,0-1.14H188.7Z"/><path class="cls-1" d="M139,116.75v4.88l1.19,0h1.26v-2.43H144v2.38h2.3a.77.77,0,0,1,.15.13.24.24,0,0,1,.05.1v7.23H144v-4.89h-5v2.43h-2.46v2.45c-1.67.1-3.3,0-5,.06v-2.47H134v-5h2.5v-4.93Z"/><path class="cls-1" d="M191.18,32.24V24.87h2.43V22.39H201V34.72h-2.38c-.1-1.58,0-3.21-.05-4.88h-4.91c-.12.74,0,1.56-.08,2.4Z"/><path class="cls-1" d="M27.28,106.77v2.43c-1.62.12-3.24,0-5,.07v2.45H19.86v7.46H17.35v-4.93H14.89v2.45h-5v-2.43c.79-.12,1.61,0,2.45-.08v-2.43h5v-2.49h2.49v-7.42h2.45c.11,1.58,0,3.21.06,4.92Z"/><path class="cls-1" d="M176.26,129.07v-4.79a.3.3,0,0,0-.08-.08.16.16,0,0,0-.1,0h-4.74v-2.44h-2.49v-7.45h4.9v-2.47h5v2.41h-2.43v2.49h-5v2.45h2.39c.15.83,0,1.65.1,2.49h4.76l.14.12a.2.2,0,0,1,0,.11c0,2.39,0,4.78,0,7.21Z"/><path class="cls-1" d="M104.3,114.24h2.41v2.41h2.49v-2.38h9.93v2.39h-7.37c-.12.83,0,1.65-.08,2.49h-2.43v2.5h-2.5v7.44H104.3Z"/><path class="cls-1" d="M129.09,124.11v2.49c-1.63.07-3.27,0-4.91,0s-3.29,0-5,0v-7.44h2.39v-2.43c.84-.12,1.65,0,2.49-.08v-2.43h2.5v-2.46h2.48v4.89h-2.44v2.46h-2.43c-.16.83,0,1.65-.1,2.48h-2.41c0,.44,0,.84,0,1.23s0,.82,0,1.26Z"/><path class="cls-1" d="M32.25,129.12v2.35l-.08.09a.25.25,0,0,1-.11,0H24.85V119.22h2.4v-5h5v5H29.73v2.48H27.31v7.42Z"/><path class="cls-1" d="M228.41,67h2.35a93.36,93.36,0,0,1,.09,9.93h-4.93V74.49h-7.25a.21.21,0,0,0-.11,0,.76.76,0,0,0-.09.09V77H216c-.11-1.62,0-3.24,0-4.94h12.42Z"/><path class="cls-1" d="M144,171.33v2.35l-.08.09a.21.21,0,0,1-.1,0H131.62v-7.42H134v-7.48h2.51v9.91H134.1v2.51Z"/><path class="cls-1" d="M54.6,29.8V27.36c-1.62-.11-3.25,0-4.92-.06V24.85h4.88v-5h2.52v2.49h1.3l1.18-.05V19.86h5v4.95H57.11v5Z"/><path class="cls-1" d="M208.54,171.33v2.35l-.08.09a.21.21,0,0,1-.11,0H193.7v-2.45h2.39v-10h2.52v9.93Z"/><path class="cls-1" d="M114.19,86.91V74.49h2.48v2.43h5V74.49h4.94v2.44l-1.17,0c-.41,0-.81,0-1.31,0v2.47H116.7v7.47Z"/><path class="cls-1" d="M101.77,32.24V27.36c.79-.12,1.61,0,2.45-.07v-2.4h5v2.4h2.48v7.42h-2.44V29.84h-4.92c-.14.74,0,1.56-.09,2.4Z"/><path class="cls-1" d="M245.83,74.51h-2.48v2.4h-2.49V72h2.41V69.58h5v9.84c-.35,0-.74,0-1.14,0h-1.26Z"/><path class="cls-1" d="M218.47,22.3V7.49l1.19,0h1.27V5h2.48V9.88h-2.25A1.46,1.46,0,0,0,221,10a.16.16,0,0,0,0,.1V22.3Z"/><path class="cls-1" d="M39.7,166.36v4.85l-.09.08a.21.21,0,0,1-.11,0H34.76v2.42h-5v-4.89h2.44v-2.5h2.49v2.49H36c.4,0,.8,0,1.18,0v-2.44Z"/><path class="cls-1" d="M62,119.18v-7.31c1.06-.19,10.79-.26,14.9-.09v2.44H64.53V119a.21.21,0,0,1,0,.11.6.6,0,0,1-.08.08Z"/><path class="cls-1" d="M154,77h7.36c.11-.79,0-1.6.07-2.44h7.37V77h-4.9v2.48H154Z"/><path class="cls-1" d="M76.94,114.22h2.44c.1.79,0,1.6.06,2.44h2.41v5H79.46v2.52h-5v-2.49h2.48Z"/><path class="cls-1" d="M114.16,87v17.3h-2.4V87Z"/><path class="cls-1" d="M7.42,22.39v4.87c-.79.12-1.61,0-2.45.08v4.9H2.48v2.47H0v-4.9H2.44v-5H4.93V22.39Z"/><path class="cls-1" d="M141.5,111.69v-7.36c.39,0,.79,0,1.19,0s.81,0,1.26,0v-7.4h2.49v9.83H144c-.14,1.67,0,3.3-.07,5Z"/><path class="cls-1" d="M71.94,27.35v4.92H69.51v4.95H67.06V27.35Z"/><path class="cls-1" d="M91.8,74.49h2.41a.71.71,0,0,1,.07.09.21.21,0,0,1,0,.1V81.9H91.87v2.49H86.93V82h2.42V79.46H91.8Z"/><path class="cls-1" d="M94.32,166.41v9.84c-.79.11-1.6,0-2.45.07v2.4H89.39v-4.9h2.44v-7.41Z"/><path class="cls-1" d="M250.75,91.9v2.32a.34.34,0,0,1-.08.09.21.21,0,0,1-.11,0H235.91V91.9Z"/><path class="cls-1" d="M62,173.81v-7.45h-5V164l.08-.09a.21.21,0,0,1,.1,0h7.22v9.93Z"/><path class="cls-1" d="M228.38,67h-2.33L226,67a.21.21,0,0,1,0-.11c0-4.87,0-9.73,0-14.65h2.46Z"/><path class="cls-1" d="M151.43,27.31H149c0-.38,0-.77,0-1.16s0-.82,0-1.31h-2.48V17.38h4.93v2.46H149v2.48h2.45Z"/><path class="cls-1" d="M89.4,72H87l-.09-.09a.2.2,0,0,1,0-.11c0-2.39,0-4.78,0-7.22h2.46V62.11h2.46V67H89.4Z"/><path class="cls-1" d="M211,161.4h2.35a91.31,91.31,0,0,1,.08,9.93h-4.92v-2.49H211Z"/><path class="cls-1" d="M54.6,149V136.57h2.48V149Z"/><path class="cls-1" d="M54.57,29.84V42.18h-2.4V29.84Z"/><path class="cls-1" d="M86.87,124.11v-7.37l1.19,0h1.27v-2.42h2.48v4.85H89.42c-.13,1.68,0,3.31-.08,5Z"/><path class="cls-1" d="M119.15,168.89v2.4H116.7v2.47h-7.45v-2.42h4.93v-2.45Z"/><path class="cls-1" d="M91.84,126.59V124.2c.79-.11,1.61,0,2.45-.07V121.7h2.49v-2.46h2.48v4.86H96.87c-.14.84,0,1.65-.1,2.49Z"/><path class="cls-1" d="M74.46,2.48V.14a.73.73,0,0,1,.08-.09.16.16,0,0,1,.1,0h7.22V7.45H79.43v-5Z"/><path class="cls-1" d="M32.25,49.66V39.73h2.48v9.93Z"/><path class="cls-1" d="M32.22,49.7v9.86h-2.4V49.7Z"/><path class="cls-1" d="M198.61,161.4V154c1.62-.1,3.25,0,5-.06v2.5h-2.49v4.77a.21.21,0,0,1,0,.11l-.09.09Z"/><path class="cls-1" d="M203.58,156.43h4.94v2.45H211v2.52h-5v-2.5h-2.46Z"/><path class="cls-1" d="M176.26,161.4v4.94h-2.45v2.51H171.3V163.9h2.45v-2.5Z"/><path class="cls-1" d="M27.28,106.74v-2.41c1.63-.1,3.26,0,4.89,0s3.29,0,5,0v2.45Z"/><path class="cls-1" d="M173.78,27.31V17.38h2.48v9.93Z"/><path class="cls-1" d="M96.84,161.36V151.5h2.4v9.86Z"/><path class="cls-1" d="M57.08,166.41v4.87c-.79.11-1.61,0-2.45.07v2.4H52.14v-4.89h2.45v-2.45Z"/><path class="cls-1" d="M86.87,124.15v2.48h5v2.46H84.45v-4.94Z"/><path class="cls-1" d="M151.43,29.84v2.4l-1.19,0H149v2.43h-5V32.29h2.44V29.84Z"/><path class="cls-1" d="M62,129.12H59.56v-9.94H62Z"/><path class="cls-1" d="M233.41,72h4.89V77c-1.59,0-3.22,0-4.89,0Z"/><path class="cls-1" d="M173.75,72.05v7.38h-2.4V72.05Z"/><path class="cls-1" d="M14.87,126.63v7.45H12.38v-7.45Z"/><path class="cls-1" d="M171.27,168.88v7.38h-2.4v-7.38Z"/><path class="cls-1" d="M59.56,129.12v7.45H57.08v-7.45Z"/><path class="cls-1" d="M173.74,131.63v2.43h-7.36v-2.43Z"/><path class="cls-1" d="M64.53,9.93V5h5V7.48H67V9.93Z"/><path class="cls-1" d="M79.43,7.45v5h-5V9.91H77V7.45Z"/><path class="cls-1" d="M225.92,77v2.36l-.08.09a.2.2,0,0,1-.11,0h-7.26V77Z"/><path class="cls-1" d="M22.32,22.35V29.8H19.83V22.35Z"/><path class="cls-1" d="M62.08,74.45v-4.9H67V72H64.56v2.48Z"/><path class="cls-1" d="M171.3,10v2.39c-.79.14-1.6,0-2.48.1v2.41h-2.44V10Z"/><path class="cls-1" d="M72,27.28V25a.34.34,0,0,1,.08-.09.16.16,0,0,1,.1-.05h7.21v2.45Z"/><path class="cls-1" d="M146.47,17.38h-5V15c.79-.12,1.6,0,2.44-.08V12.48h2.53Z"/><path class="cls-1" d="M14.87,126.63v-7.45h2.48v7.45Z"/><path class="cls-1" d="M82,27.34h2.4v7.39c-.76.08-1.56,0-2.4,0Z"/><path class="cls-1" d="M32.25,114.22v-2.44c1.62-.1,3.25,0,5,0v5H34.73c0-.49,0-.89,0-1.3s0-.79,0-1.18Z"/><path class="cls-1" d="M173.78,34.76h-2.35a.73.73,0,0,1-.09-.08.21.21,0,0,1,0-.11V27.31h2.48Z"/><path class="cls-1" d="M19.83,29.8v7.45H17.35V29.8Z"/><path class="cls-1" d="M141.5,111.74v5H139v-5Z"/><path class="cls-1" d="M96.81,161.4v5H94.32v-5Z"/><path class="cls-1" d="M57.08,19.86v-5h2.48v5Z"/><path class="cls-1" d="M72,14.9v2.48H67V14.9Z"/><path class="cls-1" d="M183.71,29.8v2.48h-5V29.8Z"/><path class="cls-1" d="M193.64,14.9v5h-2.48v-5Z"/><path class="cls-1" d="M17.32,37.28v4.9h-2.4v-4.9Z"/><path class="cls-1" d="M7.42,22.35v-5H9.9v5Z"/><path class="cls-1" d="M173.74,37.28V39.7h-4.87V37.28Z"/><path class="cls-1" d="M136.57,158.87V154H139v4.89Z"/><path class="cls-1" d="M37.21,116.7h2.44c.1,1.63,0,3.26.06,5h-2.5Z"/><path class="cls-1" d="M193.64,9.93h2.44c.1,1.63,0,3.26.06,5h-2.5Z"/><path class="cls-1" d="M188.68,22.35v5H186.2v-5Z"/><path class="cls-1" d="M119.15,163.88h2.44c.1,1.62,0,3.25.06,5h-2.5Z"/><path class="cls-1" d="M54.56,149v4.9H52.17V149Z"/><path class="cls-1" d="M37.21,121.67v5H34.73v-5Z"/><path class="cls-1" d="M12.35,134.12V139H10v-4.9Z"/><path class="cls-1" d="M69.49,5V2.48h5V5Z"/><path class="cls-1" d="M74.46,124.15v2.48h-5v-2.48Z"/><path class="cls-1" d="M62,74.49v5H59.56v-5Z"/><path class="cls-1" d="M69.49,126.63v2.49h-5v-2.49Z"/><path class="cls-1" d="M34.73,126.63v2.49H32.25v-2.49Z"/><path class="cls-1" d="M129.09,72v2.48H126.6V72Z"/><path class="cls-1" d="M191.16,19.86v2.49h-2.48V19.86Z"/><path class="cls-1" d="M64.53,129.12v2.44l-1.18,0c-.41,0-.82,0-1.31,0v-2.48Z"/><circle class="cls-1" cx="175.02" cy="130.36" r="1.76"/><path class="cls-1" d="M129.12,124.12v-2.43h2.4v2.43Z"/><path class="cls-1" d="M139,19.9v2.42h-2.39V19.9Z"/><circle class="cls-1" cx="140.26" cy="18.62" r="1.76"/><path class="cls-1" d="M9.87,116.74v2.42H7.47v-2.42Z"/><path class="cls-1" d="M82,17.4h2.4v2.42c-.35,0-.74,0-1.14,0s-.81,0-1.26,0Z"/><path class="cls-1" d="M67,17.38v2.48H64.53V17.38Z"/><path class="cls-1" d="M151.43,29.8V27.31h2.44c0,.39,0,.79,0,1.18s0,.82,0,1.31Z"/><circle class="cls-1" cx="184.95" cy="28.55" r="1.76"/><path class="cls-1" d="M101.77,32.28v2.48H99.29V32.28Z"/><path class="cls-1" d="M178.75,32.28v2.48h-2.49V32.28Z"/><circle class="cls-1" cx="11.14" cy="16.14" r="1.76"/><path class="cls-1" d="M176.26,34.76v2.49h-2.48V34.76Z"/><path class="cls-1" d="M238.3,64.54h-2.4V62.11c.35,0,.74,0,1.14,0h1.26Z"/><path class="cls-1" d="M74.46,12.42V14.9H72V12.42Z"/><path class="cls-1" d="M59.56,14.9V12.42H62V14.9Z"/><path class="cls-1" d="M34.73,166.36v-2.48h2.48v2.48Z"/><path class="cls-1" d="M253.24,89.39v2.48h-2.49V89.39Z"/><path class="cls-1" d="M57.08,81.94V79.46h2.48v2.48Z"/><path class="cls-1" d="M62,12.42V9.93h2.49v2.49Z"/><path class="cls-1" d="M131.57,69.52V72h-2.48V69.52Z"/><path class="cls-1" d="M144,171.33v-2.44c.39,0,.79,0,1.18,0h1.31v2.48Z"/><path class="cls-1" d="M89.36,72h2.48v2.48H89.36Z"/><path class="cls-1" d="M220.94,168.89v2.4h-2.4v-2.4Z"/><path class="cls-1" d="M228.36,171.31H226v-2.42c.34,0,.74,0,1.13,0h1.26Z"/><path class="cls-1" d="M235.81,171.31h-2.4v-2.43c.35,0,.75,0,1.15,0h1.25Z"/><path class="cls-1" d="M62,173.85v2.42h-2.4v-2.42Z"/></g></g></g></svg>